<svg width="137" height="37" viewBox="0 0 137 37" fill="none" xmlns="http://www.w3.org/2000/svg">
<path d="M16.128 23.576H8.576L7.456 27H0L8.288 4.344H16.48L24.736 27H17.248L16.128 23.576ZM14.4 18.232L12.352 11.928L10.304 18.232H14.4ZM32.814 4.344V27H25.71V4.344H32.814ZM46.7745 27L42.5185 18.872H42.4865V27H35.3825V4.344H45.9425C47.7772 4.344 49.3452 4.67467 50.6465 5.336C51.9478 5.976 52.9185 6.86133 53.5585 7.992C54.2198 9.10133 54.5505 10.36 54.5505 11.768C54.5505 13.2827 54.1238 14.6267 53.2705 15.8C52.4385 16.9733 51.2332 17.816 49.6545 18.328L54.5825 27H46.7745ZM42.4865 14.136H45.3025C45.9852 14.136 46.4972 13.9867 46.8385 13.688C47.1798 13.368 47.3505 12.8773 47.3505 12.216C47.3505 11.6187 47.1692 11.1493 46.8065 10.808C46.4652 10.4667 45.9638 10.296 45.3025 10.296H42.4865V14.136Z" fill="#050025"/>
<mask id="path-2-outside-1_1301_1631" maskUnits="userSpaceOnUse" x="60.3333" y="3" width="75" height="25" fill="black">
<rect fill="white" x="60.3333" y="3" width="75" height="25"/>
<path d="M83.6613 27H76.5573L69.0373 15.608V27H61.9333V4.344H69.0373L76.5573 15.928V4.344H83.6613V27ZM93.3348 4.344V27H86.2308V4.344H93.3348ZM109.599 27L103.007 17.176V27H95.9033V4.344H103.007V13.88L109.503 4.344H117.535L109.727 15.192L118.047 27H109.599ZM126.524 10.008V12.792H133.564V18.136H126.524V21.336H134.524V27H119.42V4.344H134.524V10.008H126.524Z"/>
</mask>
<path d="M83.6613 27V27.6667H84.328V27H83.6613ZM76.5573 27L76.0009 27.3673L76.1986 27.6667H76.5573V27ZM69.0373 15.608L69.5937 15.2407L68.3706 13.3879V15.608H69.0373ZM69.0373 27V27.6667H69.704V27H69.0373ZM61.9333 27H61.2666V27.6667H61.9333V27ZM61.9333 4.344V3.67733H61.2666V4.344H61.9333ZM69.0373 4.344L69.5965 3.981L69.3994 3.67733H69.0373V4.344ZM76.5573 15.928L75.9981 16.291L77.224 18.1793V15.928H76.5573ZM76.5573 4.344V3.67733H75.8906V4.344H76.5573ZM83.6613 4.344H84.328V3.67733H83.6613V4.344ZM83.6613 26.3333H76.5573V27.6667H83.6613V26.3333ZM77.1137 26.6327L69.5937 15.2407L68.4809 15.9753L76.0009 27.3673L77.1137 26.6327ZM68.3706 15.608V27H69.704V15.608H68.3706ZM69.0373 26.3333H61.9333V27.6667H69.0373V26.3333ZM62.6 27V4.344H61.2666V27H62.6ZM61.9333 5.01067H69.0373V3.67733H61.9333V5.01067ZM68.4781 4.707L75.9981 16.291L77.1165 15.565L69.5965 3.981L68.4781 4.707ZM77.224 15.928V4.344H75.8906V15.928H77.224ZM76.5573 5.01067H83.6613V3.67733H76.5573V5.01067ZM82.9946 4.344V27H84.328V4.344H82.9946ZM93.3348 4.344H94.0015V3.67733H93.3348V4.344ZM93.3348 27V27.6667H94.0015V27H93.3348ZM86.2308 27H85.5641V27.6667H86.2308V27ZM86.2308 4.344V3.67733H85.5641V4.344H86.2308ZM92.6681 4.344V27H94.0015V4.344H92.6681ZM93.3348 26.3333H86.2308V27.6667H93.3348V26.3333ZM86.8975 27V4.344H85.5641V27H86.8975ZM86.2308 5.01067H93.3348V3.67733H86.2308V5.01067ZM109.599 27L109.046 27.3715L109.244 27.6667H109.599V27ZM103.007 17.176L103.561 16.8045L102.341 14.986V17.176H103.007ZM103.007 27V27.6667H103.674V27H103.007ZM95.9033 27H95.2366V27.6667H95.9033V27ZM95.9033 4.344V3.67733H95.2366V4.344H95.9033ZM103.007 4.344H103.674V3.67733H103.007V4.344ZM103.007 13.88H102.341V16.0428L103.558 14.2553L103.007 13.88ZM109.503 4.344V3.67733H109.151L108.952 3.96867L109.503 4.344ZM117.535 4.344L118.076 4.73345L118.837 3.67733H117.535V4.344ZM109.727 15.192L109.186 14.8025L108.909 15.1879L109.182 15.576L109.727 15.192ZM118.047 27V27.6667H119.333L118.592 26.616L118.047 27ZM110.153 26.6285L103.561 16.8045L102.454 17.5475L109.046 27.3715L110.153 26.6285ZM102.341 17.176V27H103.674V17.176H102.341ZM103.007 26.3333H95.9033V27.6667H103.007V26.3333ZM96.57 27V4.344H95.2366V27H96.57ZM95.9033 5.01067H103.007V3.67733H95.9033V5.01067ZM102.341 4.344V13.88H103.674V4.344H102.341ZM103.558 14.2553L110.054 4.71933L108.952 3.96867L102.456 13.5047L103.558 14.2553ZM109.503 5.01067H117.535V3.67733H109.503V5.01067ZM116.994 3.95455L109.186 14.8025L110.268 15.5815L118.076 4.73345L116.994 3.95455ZM109.182 15.576L117.502 27.384L118.592 26.616L110.272 14.808L109.182 15.576ZM118.047 26.3333H109.599V27.6667H118.047V26.3333ZM126.524 10.008V9.34133H125.857V10.008H126.524ZM126.524 12.792H125.857V13.4587H126.524V12.792ZM133.564 12.792H134.23V12.1253H133.564V12.792ZM133.564 18.136V18.8027H134.23V18.136H133.564ZM126.524 18.136V17.4693H125.857V18.136H126.524ZM126.524 21.336H125.857V22.0027H126.524V21.336ZM134.524 21.336H135.19V20.6693H134.524V21.336ZM134.524 27V27.6667H135.19V27H134.524ZM119.42 27H118.753V27.6667H119.42V27ZM119.42 4.344V3.67733H118.753V4.344H119.42ZM134.524 4.344H135.19V3.67733H134.524V4.344ZM134.524 10.008V10.6747H135.19V10.008H134.524ZM125.857 10.008V12.792H127.19V10.008H125.857ZM126.524 13.4587H133.564V12.1253H126.524V13.4587ZM132.897 12.792V18.136H134.23V12.792H132.897ZM133.564 17.4693H126.524V18.8027H133.564V17.4693ZM125.857 18.136V21.336H127.19V18.136H125.857ZM126.524 22.0027H134.524V20.6693H126.524V22.0027ZM133.857 21.336V27H135.19V21.336H133.857ZM134.524 26.3333H119.42V27.6667H134.524V26.3333ZM120.086 27V4.344H118.753V27H120.086ZM119.42 5.01067H134.524V3.67733H119.42V5.01067ZM133.857 4.344V10.008H135.19V4.344H133.857ZM134.524 9.34133H126.524V10.6747H134.524V9.34133Z" fill="black" mask="url(#path-2-outside-1_1301_1631)"/>
<rect x="0.667969" y="28" width="129" height="9" fill="#F4F6F8"/>
</svg>
