<svg width="48" height="48" viewBox="0 0 48 48" fill="none" xmlns="http://www.w3.org/2000/svg">
<g clip-path="url(#clip0_2_1740)">
<path d="M47.25 33.1875H47.0625V32.25C47.0488 29.6622 46.0678 27.1731 44.3122 25.2718C42.5567 23.3705 40.1535 22.1946 37.575 21.975L31.2488 21.4688C30.4514 21.4011 29.7082 21.0376 29.1654 20.4497C28.6226 19.8617 28.3194 19.0919 28.3155 18.2917V7.22475C28.7456 7.10277 29.1243 6.84409 29.3944 6.48783C29.6645 6.13156 29.8112 5.69706 29.8125 5.25V2.25C29.8121 1.70311 29.5947 1.17874 29.208 0.792031C28.8213 0.405323 28.2969 0.187897 27.75 0.1875H11.25C10.7031 0.187897 10.1787 0.405323 9.79203 0.792031C9.40532 1.17874 9.1879 1.70311 9.1875 2.25V5.25C9.18896 5.69745 9.33616 6.13224 9.60682 6.48856C9.87747 6.84487 10.2568 7.10331 10.6875 7.22475V9.1875H2.25C1.70311 9.1879 1.17874 9.40532 0.792031 9.79203C0.405323 10.1787 0.187897 10.7031 0.1875 11.25V14.25C0.188963 14.6975 0.336163 15.1322 0.606816 15.4886C0.87747 15.8449 1.25684 16.1033 1.6875 16.2248V42.1875H1.5C1.35082 42.1875 1.20774 42.2468 1.10225 42.3523C0.996763 42.4577 0.9375 42.6008 0.9375 42.75V47.25C0.9375 47.3992 0.996763 47.5423 1.10225 47.6477C1.20774 47.7532 1.35082 47.8125 1.5 47.8125H12C12.1492 47.8125 12.2923 47.7532 12.3977 47.6477C12.5032 47.5423 12.5625 47.3992 12.5625 47.25V46.3125H14.7667L16.1025 47.6475C16.1546 47.6998 16.2166 47.7414 16.2848 47.7697C16.353 47.798 16.4261 47.8126 16.5 47.8125H38.25C38.3992 47.8125 38.5423 47.7532 38.6477 47.6477C38.7532 47.5423 38.8125 47.3992 38.8125 47.25V42.75C38.8125 42.6008 38.7532 42.4577 38.6477 42.3523C38.5423 42.2468 38.3992 42.1875 38.25 42.1875H38.0625V41.25C38.0589 40.4276 37.9557 39.6086 37.755 38.811H47.25C47.3992 38.811 47.5423 38.7517 47.6477 38.6462C47.7532 38.5408 47.8125 38.3977 47.8125 38.2485V33.75C47.8125 33.6008 47.7532 33.4577 47.6477 33.3523C47.5423 33.2468 47.3992 33.1875 47.25 33.1875ZM37.7423 23.127C39.9882 23.3807 42.0631 24.4496 43.5736 26.1311C45.084 27.8126 45.9252 29.9898 45.9375 32.25V33.1875H34.3125V33.075C34.3125 30.1582 34.9193 26.1 37.7423 23.127ZM5.25 33.1875H2.8125V27.5625H6C7.14332 27.5611 8.23941 27.1063 9.04786 26.2979C9.85631 25.4894 10.3111 24.3933 10.3125 23.25V22.5C10.3135 21.6549 10.6496 20.8448 11.2472 20.2472C11.8448 19.6496 12.6549 19.3135 13.5 19.3125H18.1875V27.288C18.1928 28.3708 18.603 29.4124 19.3375 30.2079C20.072 31.0035 21.0776 31.4954 22.1565 31.587L27.3525 32.0025C24.7658 35.1577 24.1875 39.156 24.1875 42.075V42.1875H10.3125V38.25C10.3109 36.9078 9.77703 35.6211 8.82797 34.672C7.87892 33.723 6.59217 33.1891 5.25 33.1875ZM9.1875 38.25V42.1875H2.8125V34.3125H5.25C6.29392 34.3137 7.29475 34.7289 8.03292 35.4671C8.77108 36.2052 9.18631 37.2061 9.1875 38.25ZM2.8125 26.4375V16.3125H18.1875V18.1875H13.5C12.3567 18.1889 11.2606 18.6437 10.4521 19.4521C9.64369 20.2606 9.18889 21.3567 9.1875 22.5V23.25C9.18651 24.0951 8.85036 24.9052 8.25281 25.5028C7.65525 26.1004 6.84507 26.4365 6 26.4375H2.8125ZM25.3125 42.075C25.3125 39.1582 25.9193 35.1 28.7423 32.127C30.9882 32.3807 33.0631 33.4496 34.5736 35.1311C36.084 36.8126 36.9252 38.9898 36.9375 41.25V42.1875H25.3125V42.075ZM31.1565 22.587L36.3525 23.0025C33.9277 25.9597 33.2677 29.6565 33.195 32.5125C31.8019 31.6342 30.2166 31.1066 28.575 30.975L22.2488 30.4688C21.4514 30.4011 20.7082 30.0376 20.1654 29.4497C19.6226 28.8617 19.3194 28.0919 19.3155 27.2917V16.2248C19.7462 16.1033 20.1255 15.8449 20.3962 15.4886C20.6668 15.1322 20.814 14.6975 20.8155 14.25V11.25C20.815 11.1162 20.8015 10.9829 20.775 10.8517C21.2838 10.5049 21.8842 10.3172 22.5 10.3125H27.1875V18.288C27.1928 19.3708 27.603 20.4124 28.3375 21.2079C29.072 22.0035 30.0776 22.4954 31.1565 22.587ZM18.75 9.1875H11.8125V7.3125H27.1875V9.1875H22.5C21.7026 9.18944 20.9221 9.41836 20.25 9.8475C20.0588 9.6403 19.8269 9.47475 19.5688 9.3612C19.3107 9.24764 19.032 9.18851 18.75 9.1875ZM10.3125 5.25V2.25C10.3129 2.00148 10.4118 1.76325 10.5875 1.58753C10.7633 1.4118 11.0015 1.3129 11.25 1.3125H27.75C27.9985 1.3129 28.2367 1.4118 28.4125 1.58753C28.5882 1.76325 28.6871 2.00148 28.6875 2.25V5.25C28.6871 5.49852 28.5882 5.73674 28.4125 5.91247C28.2367 6.0882 27.9985 6.1871 27.75 6.1875H11.25C11.0015 6.1871 10.7633 6.0882 10.5875 5.91247C10.4118 5.73674 10.3129 5.49852 10.3125 5.25ZM1.3125 14.25V11.25C1.3129 11.0015 1.4118 10.7633 1.58753 10.5875C1.76325 10.4118 2.00148 10.3129 2.25 10.3125H18.75C18.9985 10.3129 19.2367 10.4118 19.4125 10.5875C19.5882 10.7633 19.6871 11.0015 19.6875 11.25V14.25C19.6871 14.4985 19.5882 14.7367 19.4125 14.9125C19.2367 15.0882 18.9985 15.1871 18.75 15.1875H2.25C2.00148 15.1871 1.76325 15.0882 1.58753 14.9125C1.4118 14.7367 1.3129 14.4985 1.3125 14.25ZM37.6875 46.6875H35.7052V45.75C35.7052 45.6008 35.646 45.4577 35.5405 45.3523C35.435 45.2468 35.2919 45.1875 35.1427 45.1875C34.9936 45.1875 34.8505 45.2468 34.745 45.3523C34.6395 45.4577 34.5802 45.6008 34.5802 45.75V46.6875H32.598V45.75C32.598 45.6008 32.5387 45.4577 32.4333 45.3523C32.3278 45.2468 32.1847 45.1875 32.0355 45.1875C31.8863 45.1875 31.7432 45.2468 31.6378 45.3523C31.5323 45.4577 31.473 45.6008 31.473 45.75V46.6875H29.4907V45.75C29.4907 45.6008 29.4315 45.4577 29.326 45.3523C29.2205 45.2468 29.0774 45.1875 28.9282 45.1875C28.7791 45.1875 28.636 45.2468 28.5305 45.3523C28.425 45.4577 28.3657 45.6008 28.3657 45.75V46.6875H26.3843V45.75C26.3843 45.6008 26.325 45.4577 26.2195 45.3523C26.114 45.2468 25.9709 45.1875 25.8218 45.1875C25.6726 45.1875 25.5295 45.2468 25.424 45.3523C25.3185 45.4577 25.2593 45.6008 25.2593 45.75V46.6875H23.277V45.75C23.277 45.6008 23.2177 45.4577 23.1122 45.3523C23.0068 45.2468 22.8637 45.1875 22.7145 45.1875C22.5653 45.1875 22.4222 45.2468 22.3168 45.3523C22.2113 45.4577 22.152 45.6008 22.152 45.75V46.6875H20.1698V45.75C20.1698 45.6008 20.1105 45.4577 20.005 45.3523C19.8995 45.2468 19.7564 45.1875 19.6073 45.1875C19.4581 45.1875 19.315 45.2468 19.2095 45.3523C19.104 45.4577 19.0448 45.6008 19.0448 45.75V46.6875H16.7332L15.3975 45.3525C15.3454 45.3002 15.2834 45.2586 15.2152 45.2303C15.147 45.202 15.0739 45.1874 15 45.1875H12C11.8508 45.1875 11.7077 45.2468 11.6023 45.3523C11.4968 45.4577 11.4375 45.6008 11.4375 45.75V46.6875H9.06225V45.75C9.06225 45.6008 9.00299 45.4577 8.8975 45.3523C8.79201 45.2468 8.64893 45.1875 8.49975 45.1875C8.35057 45.1875 8.20749 45.2468 8.102 45.3523C7.99651 45.4577 7.93725 45.6008 7.93725 45.75V46.6875H5.56275V45.75C5.56275 45.6008 5.50349 45.4577 5.398 45.3523C5.29251 45.2468 5.14943 45.1875 5.00025 45.1875C4.85107 45.1875 4.70799 45.2468 4.6025 45.3523C4.49701 45.4577 4.43775 45.6008 4.43775 45.75V46.6875H2.0625V43.3125H37.6875V46.6875ZM46.6875 37.6875H44.7052V36.75C44.7052 36.6008 44.646 36.4577 44.5405 36.3523C44.435 36.2468 44.2919 36.1875 44.1427 36.1875C43.9936 36.1875 43.8505 36.2468 43.745 36.3523C43.6395 36.4577 43.5802 36.6008 43.5802 36.75V37.6875H41.598V36.75C41.598 36.6008 41.5387 36.4577 41.4333 36.3523C41.3278 36.2468 41.1847 36.1875 41.0355 36.1875C40.8863 36.1875 40.7432 36.2468 40.6378 36.3523C40.5323 36.4577 40.473 36.6008 40.473 36.75V37.6875H37.41C36.9451 36.4413 36.2457 35.2956 35.3498 34.3125H46.6875V37.6875Z" fill="#EC092C"/>
</g>
<defs>
<clipPath id="clip0_2_1740">
<rect width="48" height="48" fill="white"/>
</clipPath>
</defs>
</svg>
