<svg width="23" height="27" viewBox="0 0 23 27" fill="none" xmlns="http://www.w3.org/2000/svg">
<path d="M22.1537 25.7126L20.524 7.5286C20.4795 7.03201 20.0641 6.65164 19.5666 6.65164H16.2058V5.13297C16.2058 2.30265 13.9077 0 11.0829 0C8.25831 0 5.96046 2.30265 5.96046 5.13297V6.65164H2.59738C2.09982 6.65164 1.68442 7.03201 1.63995 7.5286L0.00384371 25.7842C-0.0202524 26.0536 0.0697235 26.3206 0.251855 26.5201C0.433986 26.7197 0.691481 26.8333 0.961281 26.8333H21.2028H21.2054C21.7364 26.8333 22.1667 26.4021 22.1667 25.8702C22.1665 25.8167 22.1622 25.7639 22.1537 25.7126ZM7.88303 5.13297C7.88303 3.36479 9.31854 1.92626 11.0831 1.92626C12.8477 1.92626 14.2834 3.36479 14.2834 5.13297V6.65164H7.88303V5.13297ZM2.0128 24.9072L3.47625 8.5779H5.96046V10.3002C5.96046 10.8321 6.39073 11.2634 6.92175 11.2634C7.45276 11.2634 7.88303 10.8321 7.88303 10.3002V8.5779H14.2834V10.3002C14.2834 10.8321 14.7136 11.2634 15.2447 11.2634C15.7757 11.2634 16.2059 10.8321 16.2059 10.3002V8.5779H18.6878L20.1513 24.9072H2.0128Z" fill="#F8F8F8"/>
</svg>
