<svg width="17" height="14" viewBox="0 0 17 14" fill="none" xmlns="http://www.w3.org/2000/svg">
<path fill-rule="evenodd" clip-rule="evenodd" d="M12.8461 0.241467C12.518 0.563431 12.518 1.08543 12.8461 1.40739L13.9321 2.47329H9.24001C7.38437 2.47329 5.88001 3.94972 5.88001 5.771V6.59543C5.88001 7.05076 6.25609 7.41986 6.72001 7.41986C7.18394 7.41986 7.56001 7.05076 7.56001 6.59543V5.771C7.56001 4.86036 8.31215 4.12214 9.24001 4.12214H13.9321L12.8461 5.18805C12.518 5.50999 12.518 6.03202 12.8461 6.35396C13.1741 6.67589 13.706 6.67589 14.034 6.35396L16.554 3.88068C16.882 3.55871 16.882 3.03672 16.554 2.71475L14.034 0.241467C13.706 -0.080489 13.1741 -0.080489 12.8461 0.241467ZM10.08 5.771C9.61608 5.771 9.24001 6.1401 9.24001 6.59543V7.41986C9.24001 8.33052 8.48787 9.06872 7.56001 9.06872H2.86794L3.95398 8.00281C4.28201 7.68087 4.28201 7.15884 3.95398 6.83691C3.62593 6.51497 3.09408 6.51497 2.76603 6.83691L0.246028 9.31019C-0.0820093 9.63213 -0.0820093 10.1542 0.246028 10.4761L2.76603 12.9494C3.09408 13.2713 3.62593 13.2713 3.95398 12.9494C4.28201 12.6274 4.28201 12.1054 3.95398 11.7835L2.86794 10.7176H7.56001C9.41566 10.7176 10.92 9.24111 10.92 7.41986V6.59543C10.92 6.1401 10.5439 5.771 10.08 5.771Z" fill="#6B6B6B"/>
</svg>
