<svg width="48" height="48" viewBox="0 0 48 48" fill="none" xmlns="http://www.w3.org/2000/svg">
<g clip-path="url(#clip0_2_1729)">
<path d="M22.3725 14.7931C22.007 15.1596 22.007 15.7529 22.3725 16.1187C22.7391 16.485 23.3324 16.485 23.6989 16.1187C24.0648 15.7529 24.0648 15.1596 23.6989 14.7931C23.3324 14.4272 22.7391 14.4272 22.3725 14.7931Z" fill="#EC092C"/>
<path d="M46.6256 10.8828L37.1177 1.37491C35.2862 -0.457976 32.3214 -0.457976 30.4882 1.37491C29.049 2.81411 2.58917 29.2739 1.37481 30.4882C-0.457335 32.3204 -0.4588 35.2852 1.37481 37.1177L10.8827 46.6257C11.7503 47.4932 12.9123 47.9997 14.2878 47.9997H32.625C33.1424 47.9997 33.5625 47.58 33.5625 47.0622C33.5625 46.5447 33.1424 46.1247 32.625 46.1247H18.0125C18.0835 46.054 46.5864 17.5511 46.6256 17.512C48.4574 15.6798 48.4588 12.715 46.6256 10.8828ZM18.8635 42.6223C17.7671 43.7187 15.9833 43.7187 14.8869 42.6223L5.37786 33.1132C4.84685 32.5822 4.55425 31.8762 4.55425 31.1251C4.55425 30.3744 4.84685 29.6679 5.37786 29.1369L16.4074 18.1074L29.8931 31.5938L18.8635 42.6223ZM2.70013 35.7913C1.60077 34.6927 1.6004 32.9144 2.7005 31.8143L2.72613 31.7887C2.86712 32.7888 3.32525 33.7124 4.05218 34.4393L13.5612 43.9479C14.3064 44.6935 15.2428 45.1345 16.214 45.2718L16.1862 45.2996C15.0894 46.396 13.3048 46.3964 12.2084 45.2996L2.70013 35.7913ZM45.2995 16.1863L31.2187 30.2678L17.7331 16.7817L31.8142 2.70059C32.9136 1.60122 34.6919 1.60012 35.7916 2.70059L45.2999 12.2089C46.3996 13.3079 46.4 15.0858 45.2995 16.1863Z" fill="#EC092C"/>
<path d="M31.8149 5.35144L25.0246 12.1417C24.6584 12.5079 24.6584 13.1015 25.0246 13.4674C25.3908 13.8336 25.9841 13.8336 26.3503 13.4674L33.1405 6.67712C33.5068 6.31091 33.5068 5.71728 33.1405 5.35144C32.7743 4.98523 32.1811 4.98523 31.8149 5.35144Z" fill="#EC092C"/>
<path d="M36.3749 46.1246C35.8571 46.1246 35.4374 46.5447 35.4374 47.0621C35.4374 47.58 35.8571 47.9996 36.3749 47.9996H38.2499C38.7674 47.9996 39.1874 47.58 39.1874 47.0621C39.1874 46.5447 38.7674 46.1246 38.2499 46.1246H36.3749Z" fill="#EC092C"/>
<path d="M41.9999 46.1246C41.4821 46.1246 41.0624 46.5447 41.0624 47.0621C41.0624 47.58 41.4821 47.9996 41.9999 47.9996H43.8745C44.3924 47.9996 44.812 47.58 44.812 47.0621C44.812 46.5447 44.3924 46.1246 43.8745 46.1246H41.9999Z" fill="#EC092C"/>
</g>
<defs>
<clipPath id="clip0_2_1729">
<rect width="48" height="48" fill="white"/>
</clipPath>
</defs>
</svg>
