<svg width="22" height="15" viewBox="0 0 22 15" fill="none" xmlns="http://www.w3.org/2000/svg">
<path d="M10.8633 11.1999C5.58332 11.1999 5.58332 3.19989 10.8633 3.19989C16.0833 3.19989 16.3089 11.1999 10.8633 11.1999ZM10.8633 4.79989C7.66332 4.79989 7.66332 9.59989 10.8633 9.59989C14.0633 9.59989 14.0633 4.79989 10.8633 4.79989Z" fill="#6B6B6B"/>
<path d="M10.8634 14.4C6.9042 14.4 3.113 12.2968 0.463402 8.6288C0.16219 8.21328 0 7.71321 0 7.2C0 6.68679 0.16219 6.18671 0.463402 5.7712C3.113 2.1032 6.9042 0 10.8634 0C14.8226 0 18.6138 2.1032 21.2634 5.7712C21.5646 6.18671 21.7268 6.68679 21.7268 7.2C21.7268 7.71321 21.5646 8.21328 21.2634 8.6288C18.6138 12.2968 14.8226 14.4 10.8634 14.4ZM1.757 7.6912C4.1394 10.9856 7.373 12.8 10.8634 12.8C14.3538 12.8 17.5874 10.9856 19.9698 7.6912C20.0734 7.54824 20.1292 7.37618 20.1292 7.1996C20.1292 7.02302 20.0734 6.85097 19.9698 6.708C17.5874 3.4144 14.3538 1.6 10.8634 1.6C7.373 1.6 4.1394 3.4144 1.757 6.7088C1.65337 6.85176 1.59756 7.02382 1.59756 7.2004C1.59756 7.37698 1.65337 7.54904 1.757 7.692V7.6912Z" fill="#6B6B6B"/>
</svg>
