<svg width="26" height="21" viewBox="0 0 26 21" fill="none" xmlns="http://www.w3.org/2000/svg">
<path d="M12.7154 20.1C12.5599 20.1009 12.4058 20.0724 12.2618 20.0162C12.1179 19.96 11.987 19.8771 11.8766 19.7725L2.69727 10.9854C1.54585 9.87311 0.899994 8.37139 0.899994 6.80647C0.899994 5.24155 1.54585 3.73984 2.69727 2.62754C3.8577 1.52126 5.42961 0.900024 7.06838 0.900024C8.70715 0.900024 10.2791 1.52126 11.4395 2.62754L12.7154 3.84734L13.9913 2.62754C15.1517 1.52126 16.7236 0.900024 18.3624 0.900024C20.0012 0.900024 21.5731 1.52126 22.7335 2.62754C23.8849 3.73984 24.5308 5.24155 24.5308 6.80647C24.5308 8.37139 23.8849 9.87311 22.7335 10.9854L13.5542 19.7725C13.4438 19.8771 13.3129 19.96 13.1689 20.0162C13.025 20.0724 12.8709 20.1009 12.7154 20.1Z" stroke="#6B6B6B" stroke-width="1.8"/>
</svg>
