<svg width="25" height="25" viewBox="0 0 25 25" fill="none" xmlns="http://www.w3.org/2000/svg">
<path fill-rule="evenodd" clip-rule="evenodd" d="M12.2499 13.2709C8.3034 13.2709 5.10411 16.4702 5.10411 20.4167V22.4584C5.10411 23.0222 4.64706 23.4792 4.08327 23.4792C3.51948 23.4792 3.06244 23.0222 3.06244 22.4584V20.4167C3.06244 15.3426 7.17582 11.2292 12.2499 11.2292C17.3241 11.2292 21.4374 15.3426 21.4374 20.4167V22.4584C21.4374 23.0222 20.9804 23.4792 20.4166 23.4792C19.8528 23.4792 19.3958 23.0222 19.3958 22.4584V20.4167C19.3958 16.4702 16.1965 13.2709 12.2499 13.2709Z" fill="#F8F8F8"/>
<path fill-rule="evenodd" clip-rule="evenodd" d="M12.2499 11.2291C14.5051 11.2291 16.3333 9.40091 16.3333 7.14575C16.3333 4.89059 14.5051 3.06242 12.2499 3.06242C9.99478 3.06242 8.16661 4.89059 8.16661 7.14575C8.16661 9.40091 9.99478 11.2291 12.2499 11.2291ZM12.2499 13.2708C15.6327 13.2708 18.3749 10.5285 18.3749 7.14575C18.3749 3.76301 15.6327 1.02075 12.2499 1.02075C8.86719 1.02075 6.12494 3.76301 6.12494 7.14575C6.12494 10.5285 8.86719 13.2708 12.2499 13.2708Z" fill="#F8F8F8"/>
</svg>
