<svg width="84" height="84" viewBox="0 0 84 84" fill="none" xmlns="http://www.w3.org/2000/svg">
<path d="M41.9996 42L19.0659 71.463C17.262 73.4837 14.0966 73.5377 12.262 71.6589C10.4559 69.8093 10.5471 66.7086 12.5365 64.9337C22.3575 57.2891 32.1786 49.6446 41.9996 42Z" fill="#0E0E0E"/>
<path d="M42 42L4.94986 46.617C2.24553 46.7703 -0.0309712 44.5702 0.00031877 41.9444C0.0310838 39.3594 2.28811 37.2314 4.94986 37.3831C17.2999 38.9221 29.6499 40.461 42 42Z" fill="#0E0E0E"/>
<path d="M42.0004 42.0001L12.5373 19.0664C10.5167 17.2625 10.4626 14.0971 12.3415 12.2625C14.1911 10.4564 17.2918 10.5476 19.0667 12.537C26.7113 22.358 34.3558 32.1791 42.0004 42.0001Z" fill="#0E0E0E"/>
<path d="M41.9995 42L37.3826 4.94986C37.2292 2.24553 39.4293 -0.0309712 42.0551 0.00031877C44.6401 0.0310838 46.7681 2.28811 46.6164 4.94986C45.0775 17.2999 43.5385 29.6499 41.9995 42Z" fill="#0E0E0E"/>
<path d="M42 42L64.9337 12.537C66.7376 10.5163 69.903 10.4623 71.7376 12.3411C73.5437 14.1907 73.4525 17.2914 71.4631 19.0663C61.6421 26.7109 51.821 34.3554 42 42Z" fill="#0E0E0E"/>
<path d="M42 42L79.0501 37.3831C81.7545 37.2297 84.031 39.4298 83.9997 42.0556C83.9689 44.6406 81.7119 46.7686 79.0501 46.6169C66.7001 45.078 54.35 43.539 42 42Z" fill="#0E0E0E"/>
<path d="M42 42L71.463 64.9337C73.4837 66.7376 73.5377 69.903 71.6589 71.7376C69.8093 73.5437 66.7086 73.4525 64.9337 71.4631C57.2891 61.6421 49.6446 51.821 42 42Z" fill="#0E0E0E"/>
<path d="M41.9995 42L46.6165 79.0501C46.7698 81.7545 44.5697 84.031 41.9439 83.9997C39.359 83.9689 37.2309 81.7119 37.3826 79.0501C38.9216 66.7001 40.4606 54.35 41.9995 42Z" fill="#0E0E0E"/>
</svg>
