<svg width="22" height="22" viewBox="0 0 22 22" fill="none" xmlns="http://www.w3.org/2000/svg">
<path d="M20.8104 19.0398L16.7393 14.9687C17.9731 13.3535 18.6498 11.3944 18.6501 9.32712C18.6501 6.83582 17.6798 4.49347 15.9179 2.73188C14.1563 0.970285 11.8143 0 9.32268 0C6.83138 0 4.48903 0.970285 2.72743 2.73188C-0.909144 6.36876 -0.909144 12.2861 2.72743 15.9224C4.48903 17.6843 6.83138 18.6545 9.32268 18.6545C11.39 18.6543 13.3491 17.9776 14.9643 16.7438L19.0353 20.8149C19.2802 21.06 19.6017 21.1826 19.9229 21.1826C20.2441 21.1826 20.5655 21.06 20.8104 20.8149C21.3008 20.3248 21.3008 19.5298 20.8104 19.0398ZM4.50251 14.1473C1.8448 11.4896 1.84511 7.16497 4.50251 4.50695C5.78999 3.21978 7.50194 2.51061 9.32268 2.51061C11.1437 2.51061 12.8554 3.21978 14.1428 4.50695C15.4303 5.79444 16.1395 7.50638 16.1395 9.32712C16.1395 11.1482 15.4303 12.8598 14.1428 14.1473C12.8554 15.4348 11.1437 16.1439 9.32268 16.1439C7.50194 16.1439 5.78999 15.4348 4.50251 14.1473Z" fill="#F8F8F8"/>
</svg>
