<svg width="32" height="21" viewBox="0 0 32 21" fill="none" xmlns="http://www.w3.org/2000/svg">
<path fill-rule="evenodd" clip-rule="evenodd" d="M0 1.74919C0 2.71124 0.787134 3.49837 1.74919 3.49837H29.7362C30.6982 3.49837 31.4854 2.71124 31.4854 1.74919C31.4854 0.787134 30.6982 0 29.7362 0H1.74919C0.787134 0 0 0.787134 0 1.74919ZM13.9935 20.9902H17.4919C18.4539 20.9902 19.241 20.2031 19.241 19.241C19.241 18.279 18.4539 17.4919 17.4919 17.4919H13.9935C13.0314 17.4919 12.2443 18.279 12.2443 19.241C12.2443 20.2031 13.0314 20.9902 13.9935 20.9902ZM24.4886 12.2443H6.99674C6.03469 12.2443 5.24756 11.4572 5.24756 10.4951C5.24756 9.53306 6.03469 8.74593 6.99674 8.74593H24.4886C25.4507 8.74593 26.2378 9.53306 26.2378 10.4951C26.2378 11.4572 25.4507 12.2443 24.4886 12.2443Z" fill="#F8F8F8"/>
</svg>
